<svg width="22" height="21" viewBox="0 0 22 21" fill="none" xmlns="http://www.w3.org/2000/svg">
<path d="M12.4853 6.91745C11.1051 6.89934 9.74233 7.22786 8.52193 7.8729C7.30153 8.51795 6.2625 9.4589 5.5 10.6096V6.91745C5.49776 5.82412 5.06244 4.77621 4.28934 4.00311C3.51623 3.23001 2.46833 2.79469 1.375 2.79245C1.01033 2.79245 0.660591 2.93731 0.402728 3.19518C0.144866 3.45304 0 3.80278 0 4.16745C0 4.53212 0.144866 4.88186 0.402728 5.13972C0.660591 5.39758 1.01033 5.54245 1.375 5.54245C1.73898 5.54467 2.08743 5.69026 2.34481 5.94764C2.60219 6.20502 2.74777 6.55346 2.75 6.91745V17.9514C2.75 18.6807 3.03973 19.3802 3.55545 19.8959C4.07118 20.4117 4.77065 20.7014 5.5 20.7014H13.0625C13.2448 20.7014 13.4197 20.629 13.5486 20.5C13.6776 20.3711 13.75 20.1962 13.75 20.0139V19.3264C13.7478 18.9624 13.6022 18.614 13.3448 18.3566C13.0874 18.0992 12.739 17.9536 12.375 17.9514H11L16.5 13.8264V20.0139C16.5 20.1962 16.5724 20.3711 16.7014 20.5C16.8303 20.629 17.0052 20.7014 17.1875 20.7014H18.5625C18.7448 20.7014 18.9197 20.629 19.0486 20.5C19.1776 20.3711 19.25 20.1962 19.25 20.0139V11.0764C18.8023 11.2018 18.3399 11.2675 17.875 11.2716C16.6139 11.2724 15.3908 10.8405 14.4099 10.048C13.4289 9.25555 12.7496 8.1505 12.4853 6.91745Z" fill="url(#paint0_linear)"/>
<path d="M19.25 2.75H16.5L13.75 0V5.7716C13.75 6.3133 13.8567 6.8497 14.064 7.35017C14.2713 7.85064 14.5751 8.30537 14.9582 8.68842C15.3412 9.07146 15.796 9.3753 16.2964 9.5826C16.7969 9.7899 17.3333 9.8966 17.875 9.8966C18.4167 9.8966 18.9531 9.7899 19.4536 9.5826C19.954 9.3753 20.4088 9.07146 20.7918 8.68842C21.1749 8.30537 21.4787 7.85064 21.686 7.35017C21.8933 6.8497 22 6.3133 22 5.7716V0L19.25 2.75ZM16.1605 6.1875C16.0245 6.1875 15.8916 6.14718 15.7785 6.07163C15.6655 5.99609 15.5774 5.88872 15.5253 5.76309C15.4733 5.63747 15.4597 5.49923 15.4862 5.36587C15.5127 5.23251 15.5782 5.11001 15.6744 5.01386C15.7705 4.91771 15.893 4.85224 16.0264 4.82571C16.1597 4.79918 16.298 4.81279 16.4236 4.86483C16.5492 4.91687 16.6566 5.00498 16.7321 5.11804C16.8077 5.2311 16.848 5.36402 16.848 5.5C16.848 5.68233 16.7756 5.8572 16.6466 5.98613C16.5177 6.11506 16.3428 6.1875 16.1605 6.1875ZM19.5556 6.1875C19.4196 6.1875 19.2867 6.14718 19.1736 6.07163C19.0605 5.99609 18.9724 5.88872 18.9204 5.76309C18.8684 5.63747 18.8547 5.49923 18.8813 5.36587C18.9078 5.23251 18.9733 5.11001 19.0694 5.01386C19.1656 4.91771 19.2881 4.85224 19.4214 4.82571C19.5548 4.79918 19.693 4.81279 19.8186 4.86483C19.9443 4.91687 20.0516 5.00498 20.1272 5.11804C20.2027 5.2311 20.2431 5.36402 20.2431 5.5C20.2454 5.67722 20.1783 5.84833 20.0562 5.97679C19.9341 6.10525 19.7666 6.18087 19.5895 6.1875H19.5556Z" fill="url(#paint1_linear)"/>
<defs>
<linearGradient id="paint0_linear" x1="9.625" y1="2.79245" x2="9.625" y2="24.4939" gradientUnits="userSpaceOnUse">
<stop stop-color="#3FAB86"/>
<stop offset="1" stop-color="#4BD69C"/>
</linearGradient>
<linearGradient id="paint1_linear" x1="17.875" y1="0" x2="17.875" y2="11.9924" gradientUnits="userSpaceOnUse">
<stop stop-color="#3FAB86"/>
<stop offset="1" stop-color="#4BD69C"/>
</linearGradient>
</defs>
</svg>
