<svg width="24" height="24" viewBox="0 0 24 24" fill="none" xmlns="http://www.w3.org/2000/svg">
<path d="M16.3636 2.18182C16.3636 2.18182 15.6094 2.26277 15.2727 3.27273L14.1818 7.63637L18.5455 10.9091H21.8182C24 10.9091 24 8.72728 24 8.72728L20.7273 5.45455C19.6364 4.36364 18.5455 4.36364 17.4545 4.36364V3.27273C17.4545 3.27273 17.4545 2.18182 16.3636 2.18182ZM5.45455 4.36364C5.45455 4.36364 4.68349 4.34859 3.87775 4.75135C3.072 5.15411 2.18182 6.18175 2.18182 7.63637V9.74139C2.18095 9.76713 2.18095 9.79266 2.18182 9.81819V10.9091V12C2.18182 14.1818 2.18182 15.2727 1.09091 15.2727C1.09091 15.2727 0 15.2727 0 16.3636V20.7273C0 20.7273 0 21.8182 1.09091 21.8182C2.18182 21.8182 2.18182 20.7273 2.18182 20.7273V17.4546C2.95353 17.4546 3.68858 17.1554 4.36364 16.8026V20.7273C4.36364 20.7273 4.36364 21.8182 5.45455 21.8182C6.54545 21.8182 6.54545 20.7273 6.54545 20.7273V15.2727H13.0909L14.5399 19.6194C15.2727 21.818 16.3636 21.8182 16.3636 21.8182H17.4545C17.4545 21.8182 18.5455 21.8182 18.5455 20.7273C18.5455 19.6364 17.4545 19.6364 17.4545 19.6364V14.1818C17.4545 12.2387 16.0752 11.4434 15.2727 10.9091L11.9956 8.72728H4.36364V7.63637C4.36364 6.90917 4.56415 6.84568 4.84953 6.70321C5.13469 6.56051 5.45455 6.54546 5.45455 6.54546C6.92989 6.56641 6.92989 4.3427 5.45455 4.36364Z" fill="white"/>
</svg>
