<svg width="29" height="26" viewBox="0 0 29 26" fill="none" xmlns="http://www.w3.org/2000/svg">
<rect x="0.887097" y="0.887097" width="26.6129" height="24.1082" rx="3.4962" stroke="#FF7070" stroke-width="1.77419"/>
<path fill-rule="evenodd" clip-rule="evenodd" d="M14.202 14.1691C13.0876 14.1691 12.0408 13.736 11.2526 12.9497C8.62695 10.327 10.512 5.84034 14.202 5.84034C17.8894 5.84034 19.7795 10.3245 17.1513 12.9497C16.3631 13.736 15.3163 14.1691 14.202 14.1691ZM18.319 14.1274C22.0098 10.442 19.3507 4.17458 14.1994 4.17458C9.05984 4.17458 6.36993 10.442 10.0616 14.1274C10.9882 15.0527 12.5104 15.5958 13.3445 15.7682V17.5414H10.8423V19.2071H13.3445V20.8729H15.0127V19.2071H17.5149V17.5414H15.0127V15.7682C16.6808 15.5958 17.3915 15.0527 18.319 14.1274Z" fill="#FF7070"/>
</svg>
