<svg width="18" height="26" viewBox="0 0 18 26" fill="none" xmlns="http://www.w3.org/2000/svg">
<path fill-rule="evenodd" clip-rule="evenodd" d="M9.01293 15.3909C7.29693 15.3909 5.68497 14.7239 4.47118 13.5132C0.427791 9.47437 3.33061 2.56515 9.01293 2.56515C14.6914 2.56515 17.6019 9.47051 13.5547 13.5132C12.3409 14.7239 10.7289 15.3909 9.01293 15.3909ZM15.3529 15.3267C21.0365 9.65134 16.9417 0 9.00908 0C1.09441 0 -3.04788 9.65134 2.63701 15.3267C4.06402 16.7517 6.4081 17.5879 7.69253 17.8534V20.584H3.83924V23.1491H7.69253V25.7143H10.2614V23.1491H14.1147V20.584H10.2614V17.8534C12.8303 17.5879 13.9246 16.7517 15.3529 15.3267Z" fill="url(#paint0_linear)"/>
<defs>
<linearGradient id="paint0_linear" x1="9" y1="0" x2="9" y2="31.1597" gradientUnits="userSpaceOnUse">
<stop stop-color="#3FAB86"/>
<stop offset="1" stop-color="#4BD69C"/>
</linearGradient>
</defs>
</svg>
