<svg width="30" height="27" viewBox="0 0 30 27" fill="none" xmlns="http://www.w3.org/2000/svg">
<rect x="1.1733" y="0.882986" width="27.3631" height="24.7929" rx="3.40069" stroke="#59A0FF" stroke-width="1.76597"/>
<path fill-rule="evenodd" clip-rule="evenodd" d="M12.2831 19.7054C9.92169 19.7054 8.00052 17.7842 8.00052 15.4228C8.00052 13.0613 9.92169 11.1401 12.2831 11.1401C14.6446 11.1401 16.5657 13.0613 16.5657 15.4228C16.5657 17.7842 14.6446 19.7054 12.2831 19.7054ZM16.5657 4.28368V5.99673H20.4937L15.8685 10.6236C14.8681 9.87418 13.6296 9.42627 12.2831 9.42627C8.97181 9.42627 6.28747 12.1106 6.28747 15.4219C6.28747 18.7332 8.97181 21.4184 12.2831 21.4184C15.5944 21.4184 18.2788 18.7341 18.2788 15.4228C18.2788 14.0763 17.8291 12.8378 17.0805 11.8365L21.7049 7.21209V11.1359H23.4179V4.28368H16.5657Z" fill="#59A0FF"/>
</svg>
