<svg width="24" height="25" viewBox="0 0 24 25" fill="none" xmlns="http://www.w3.org/2000/svg">
<path fill-rule="evenodd" clip-rule="evenodd" d="M8.4 21.606C5.0916 21.606 2.4 18.9144 2.4 15.606C2.4 12.2976 5.0916 9.60601 8.4 9.60601C11.7084 9.60601 14.4 12.2976 14.4 15.606C14.4 18.9144 11.7084 21.606 8.4 21.606ZM14.4 0V2.4H19.9032L13.4232 8.88237C12.0216 7.83237 10.2864 7.20483 8.4 7.20483C3.7608 7.20483 0 10.9656 0 15.6048C0 20.244 3.7608 24.006 8.4 24.006C13.0392 24.006 16.8 20.2452 16.8 15.606C16.8 13.7196 16.17 11.9844 15.1212 10.5816L21.6 4.10274V9.6H24V0H14.4Z" fill="white"/>
</svg>
