<svg width="26" height="26" viewBox="0 0 26 26" fill="none" xmlns="http://www.w3.org/2000/svg">
<path d="M24.9993 19.3895V23.0096C25.0006 23.3457 24.9318 23.6783 24.7971 23.9863C24.6625 24.2942 24.465 24.5706 24.2174 24.7978C23.9698 25.025 23.6774 25.198 23.359 25.3056C23.0407 25.4133 22.7033 25.4533 22.3686 25.423C18.6554 25.0196 15.0885 23.7507 11.9547 21.7184C9.03906 19.8657 6.56712 17.3938 4.7144 14.4782C2.67503 11.3301 1.40589 7.74589 1.00979 4.01594C0.979639 3.68225 1.0193 3.34593 1.12624 3.0284C1.23319 2.71087 1.40508 2.41909 1.63097 2.17163C1.85686 1.92417 2.1318 1.72646 2.43829 1.59108C2.74478 1.4557 3.0761 1.38563 3.41115 1.38531H7.03129C7.61692 1.37955 8.18466 1.58693 8.62869 1.9688C9.07273 2.35066 9.36276 2.88097 9.44472 3.46086C9.59752 4.61938 9.88089 5.7569 10.2894 6.85172C10.4518 7.28363 10.4869 7.75303 10.3907 8.2043C10.2944 8.65557 10.0708 9.06979 9.7464 9.39789L8.21387 10.9304C9.9317 13.9515 12.4331 16.4529 15.4542 18.1707L16.9867 16.6382C17.3148 16.3137 17.729 16.0901 18.1803 15.9939C18.6315 15.8977 19.1009 15.9328 19.5328 16.0951C20.6277 16.5037 21.7652 16.787 22.9237 16.9398C23.5099 17.0225 24.0452 17.3178 24.4279 17.7695C24.8106 18.2211 25.0139 18.7977 24.9993 19.3895Z" stroke="#43BA8E" stroke-width="1.11358" stroke-linecap="round" stroke-linejoin="round"/>
</svg>
